# xmcd CD database file
#
# Track frame offsets:
#	150
#	16242
#	33222
#	48787
#	65170
#	81937
#	97317
#	115162
#	130460
#	147425
#	165197
#	181520
#	199125
#	214342
#
# Disc length: 3050 seconds
#
# Revision: 3
# Processed by: cddbd v1.5.2PL0 Copyright (c) Steve Scherf et al.
# Submitted via: CDex 1.51
#
DISCID=c20be80e
DTITLE=Various Artist - Maximum Dance Volume 07
DYEAR=1998
DGENRE=Dance
TTITLE0=Funky 9ers - Stars On 45
TTITLE1=Mousse vs. Hot n Juicy - Horney
TTITLE2=N.y.c.c. - Can U Feel It (Rock Da House)
TTITLE3=Phil Fuldner - The Final
TTITLE4=Blümchen - Blaue Augen
TTITLE5=Various Items - Energie
TTITLE6=Kai Tracid - Dance For Eternity
TTITLE7=Mark Van Dale With Enrico - Water Wave
TTITLE8=Sven Väth - Face It
TTITLE9=Nana - Remember The Time
TTITLE10=Cyrus and The Joker - Milky Way
TTITLE11=Dj Hitchhiker - Brainticket
TTITLE12=R.o.o.s. - Living In A Dream
TTITLE13=Absolom - Secret
EXTD=YEAR: 1998
EXTT0=
EXTT1=
EXTT2=
EXTT3=
EXTT4=
EXTT5=
EXTT6=
EXTT7=
EXTT8=
EXTT9=
EXTT10=
EXTT11=
EXTT12=
EXTT13=
PLAYORDER=
